<svg xmlns="http://www.w3.org/2000/svg" xmlns:xlink="http://www.w3.org/1999/xlink" width="184" height="28" viewBox="0 0 184 28">
  <defs>
    <clipPath id="clip-path">
      <rect id="Rect치ngulo_114" data-name="Rect치ngulo 114" width="183.116" height="24.995" fill="#fff"/>
    </clipPath>
    <clipPath id="clip-Logotipo-fashioza">
      <rect width="184" height="28"/>
    </clipPath>
  </defs>
  <g id="Logotipo-fashioza" clip-path="url(#clip-Logotipo-fashioza)">
    <g id="Grupo_56" data-name="Grupo 56" transform="translate(0 2)">
      <path id="Trazado_40" data-name="Trazado 40" d="M0,.84V25.081H4.727V15.5h11.91V10.99H4.727V5.378H18.051V.84Z" transform="translate(0 -0.463)" fill="#fff"/>
      <path id="Trazado_41" data-name="Trazado 41" d="M51.175.49l-11.04,24.4h5.012l7.879-17.6,7.822,17.6h5.14L54.948.49Z" transform="translate(-22.118 -0.27)" fill="#fff"/>
      <g id="Grupo_54" data-name="Grupo 54" transform="translate(0 0)">
        <g id="Grupo_53" data-name="Grupo 53" clip-path="url(#clip-path)">
          <path id="Trazado_42" data-name="Trazado 42" d="M118.3,12.764a13.911,13.911,0,0,0-5.911-2.5,20.706,20.706,0,0,1-2.827-.757,5.613,5.613,0,0,1-1.514-.772,1.729,1.729,0,0,1-.563-.684,2.688,2.688,0,0,1-.171-1,2.005,2.005,0,0,1,.212-.915,2.128,2.128,0,0,1,.624-.745,3.809,3.809,0,0,1,1.141-.578,5.111,5.111,0,0,1,1.583-.228,8.361,8.361,0,0,1,2.869.5,9.665,9.665,0,0,1,2.768,1.637l.9.738,2.809-3.725-.862-.68A14,14,0,0,0,115.547.876,13.362,13.362,0,0,0,110.933.14a9.95,9.95,0,0,0-3.258.518,8.485,8.485,0,0,0-2.64,1.453,6.761,6.761,0,0,0-1.8,2.28,6.613,6.613,0,0,0-.647,2.913,7.064,7.064,0,0,0,.535,2.841,5.871,5.871,0,0,0,1.667,2.178,9.328,9.328,0,0,0,2.63,1.474,24.025,24.025,0,0,0,3.453.992,21.362,21.362,0,0,1,2.7.745,5.228,5.228,0,0,1,1.433.735,1.736,1.736,0,0,1,.545.667,2.571,2.571,0,0,1,.167.974,2.188,2.188,0,0,1-.9,1.852,4.609,4.609,0,0,1-2.878.8,8.961,8.961,0,0,1-3.6-.676,11.909,11.909,0,0,1-3.183-2.143l-.861-.783L101.3,20.506l.807.727a14.8,14.8,0,0,0,4.508,2.848,14.344,14.344,0,0,0,5.231.929,11.054,11.054,0,0,0,3.357-.493,8.056,8.056,0,0,0,2.742-1.466,6.937,6.937,0,0,0,2.5-5.426,6.007,6.007,0,0,0-2.149-4.86" transform="translate(-55.824 -0.077)" fill="#fff"/>
          <path id="Trazado_43" data-name="Trazado 43" d="M170.787,10.613H160.337V.84h-4.727V25.081h4.727v-9.9h10.451v9.9h4.727V.84h-4.727Z" transform="translate(-85.755 -0.463)" fill="#fff"/>
          <rect id="Rect치ngulo_113" data-name="Rect치ngulo 113" width="4.727" height="24.241" transform="translate(96.377 0.377)" fill="#fff"/>
          <path id="Trazado_44" data-name="Trazado 44" d="M259.081,3.728h0a12.078,12.078,0,0,0-3.895-2.72,12.988,12.988,0,0,0-10.072.018,12.092,12.092,0,0,0-3.91,2.754,12.516,12.516,0,0,0-2.519,3.984,12.845,12.845,0,0,0-.9,4.766,13.071,13.071,0,0,0,.878,4.759,11.945,11.945,0,0,0,6.405,6.7,12.991,12.991,0,0,0,10.072-.017,12.094,12.094,0,0,0,3.91-2.755,12.524,12.524,0,0,0,2.519-3.984,12.858,12.858,0,0,0,.9-4.766,13.069,13.069,0,0,0-.878-4.76,12.139,12.139,0,0,0-2.51-3.979M250.16,20.457a7.2,7.2,0,0,1-3.007-.622,7.5,7.5,0,0,1-3.976-4.223,8.682,8.682,0,0,1-.568-3.146,8.551,8.551,0,0,1,.567-3.127,7.957,7.957,0,0,1,1.555-2.522,7.11,7.11,0,0,1,2.351-1.669,7.355,7.355,0,0,1,3.014-.61,7.214,7.214,0,0,1,3.007.621,7.5,7.5,0,0,1,3.975,4.223,8.694,8.694,0,0,1,.569,3.146,8.565,8.565,0,0,1-.567,3.127,7.963,7.963,0,0,1-1.555,2.522,7.11,7.11,0,0,1-2.35,1.669,7.354,7.354,0,0,1-3.015.61" transform="translate(-131.043 0)" fill="#fff"/>
          <path id="Trazado_45" data-name="Trazado 45" d="M300.351,5.284h12.578L299.879,21.9v3.178h19.873V20.637H306.675L319.752,4.019V.84h-19.4Z" transform="translate(-165.26 -0.463)" fill="#fff"/>
          <path id="Trazado_46" data-name="Trazado 46" d="M365.136.49h-3.774l-11.04,24.4h5.012l7.879-17.6,7.821,17.6h5.14Z" transform="translate(-193.059 -0.27)" fill="#fff"/>
        </g>
      </g>
    </g>
  </g>
</svg>
